<svg id="visual" viewBox="0 0 900 600" width="900" height="600" xmlns="http://www.w3.org/2000/svg" xmlns:xlink="http://www.w3.org/1999/xlink" version="1.1"><rect x="0" y="0" width="900" height="600" fill="#001122"></rect><defs><linearGradient id="grad1_0" x1="33.3%" y1="0%" x2="100%" y2="100%"><stop offset="20%" stop-color="#0063cd" stop-opacity="1"></stop><stop offset="80%" stop-color="#0063cd" stop-opacity="1"></stop></linearGradient></defs><defs><linearGradient id="grad1_1" x1="33.3%" y1="0%" x2="100%" y2="100%"><stop offset="20%" stop-color="#0063cd" stop-opacity="1"></stop><stop offset="80%" stop-color="#003a73" stop-opacity="1"></stop></linearGradient></defs><defs><linearGradient id="grad1_2" x1="33.3%" y1="0%" x2="100%" y2="100%"><stop offset="20%" stop-color="#001122" stop-opacity="1"></stop><stop offset="80%" stop-color="#003a73" stop-opacity="1"></stop></linearGradient></defs><defs><linearGradient id="grad2_0" x1="0%" y1="0%" x2="66.7%" y2="100%"><stop offset="20%" stop-color="#0063cd" stop-opacity="1"></stop><stop offset="80%" stop-color="#0063cd" stop-opacity="1"></stop></linearGradient></defs><defs><linearGradient id="grad2_1" x1="0%" y1="0%" x2="66.7%" y2="100%"><stop offset="20%" stop-color="#003a73" stop-opacity="1"></stop><stop offset="80%" stop-color="#0063cd" stop-opacity="1"></stop></linearGradient></defs><defs><linearGradient id="grad2_2" x1="0%" y1="0%" x2="66.7%" y2="100%"><stop offset="20%" stop-color="#003a73" stop-opacity="1"></stop><stop offset="80%" stop-color="#001122" stop-opacity="1"></stop></linearGradient></defs><g transform="translate(900, 0)"><path d="M0 405.6C-71.9 395.6 -143.8 385.5 -202.8 351.3C-261.8 317 -307.8 258.6 -339.5 196C-371.1 133.4 -388.4 66.7 -405.6 0L0 0Z" fill="#002649"></path><path d="M0 270.4C-47.9 263.7 -95.9 257 -135.2 234.2C-174.5 211.4 -205.2 172.4 -226.3 130.7C-247.4 88.9 -258.9 44.5 -270.4 0L0 0Z" fill="#004f9f"></path><path d="M0 135.2C-24 131.9 -47.9 128.5 -67.6 117.1C-87.3 105.7 -102.6 86.2 -113.2 65.3C-123.7 44.5 -129.5 22.2 -135.2 0L0 0Z" fill="#0063cd"></path></g><g transform="translate(0, 600)"><path d="M0 -405.6C59.2 -375.4 118.5 -345.3 182 -315.2C245.5 -285.2 313.3 -255.3 351.3 -202.8C389.3 -150.3 397.4 -75.1 405.6 0L0 0Z" fill="#002649"></path><path d="M0 -270.4C39.5 -250.3 79 -230.2 121.3 -210.2C163.7 -190.1 208.9 -170.2 234.2 -135.2C259.5 -100.2 265 -50.1 270.4 0L0 0Z" fill="#004f9f"></path><path d="M0 -135.2C19.7 -125.1 39.5 -115.1 60.7 -105.1C81.8 -95.1 104.4 -85.1 117.1 -67.6C129.8 -50.1 132.5 -25 135.2 0L0 0Z" fill="#0063cd"></path></g></svg>